<?xml version="1.0" standalone="no"?><svg xmlns="http://www.w3.org/2000/svg" viewBox="0 0 1440 320"><path fill="#e7008a" fill-opacity="1" d="M0,128L24,133.3C48,139,96,149,144,149.3C192,149,240,139,288,144C336,149,384,171,432,197.3C480,224,528,256,576,234.7C624,213,672,139,720,96C768,53,816,43,864,80C912,117,960,203,1008,213.3C1056,224,1104,160,1152,149.3C1200,139,1248,181,1296,181.3C1344,181,1392,139,1416,117.3L1440,96L1440,320L1416,320C1392,320,1344,320,1296,320C1248,320,1200,320,1152,320C1104,320,1056,320,1008,320C960,320,912,320,864,320C816,320,768,320,720,320C672,320,624,320,576,320C528,320,480,320,432,320C384,320,336,320,288,320C240,320,192,320,144,320C96,320,48,320,24,320L0,320Z"></path></svg>